<?xml version="1.0" standalone="no"?>
<!DOCTYPE svg PUBLIC "-//W3C//DTD SVG 20010904//EN"
 "http://www.w3.org/TR/2001/REC-SVG-20010904/DTD/svg10.dtd">
<svg version="1.0" xmlns="http://www.w3.org/2000/svg"
 width="409.000000pt" height="409.000000pt" viewBox="0 0 409.000000 409.000000"
 preserveAspectRatio="xMidYMid meet">
<metadata>
Created by potrace 1.14, written by Peter Selinger 2001-2017
</metadata>
<g transform="translate(0.000000,409.000000) scale(0.100000,-0.100000)"
fill="#000000" stroke="none">
<path d="M2175 2784 c-88 -42 -164 -79 -169 -84 -15 -15 3 -31 23 -21 25 14
73 22 92 16 42 -13 43 -41 42 -688 -1 -341 -5 -632 -8 -648 -8 -36 -49 -69
-86 -69 -19 0 -29 -5 -29 -14 0 -12 35 -14 225 -13 133 1 225 6 225 11 0 6
-12 12 -26 14 -41 5 -62 19 -79 52 -9 16 -15 32 -15 35 0 3 0 333 0 735 0 689
-1 730 -18 739 -13 7 -55 -8 -177 -65z"/>
<path d="M2859 2828 c-194 -91 -231 -108 -238 -108 -13 0 -35 -30 -28 -37 4
-3 27 0 53 6 59 15 80 8 94 -32 12 -34 15 -1216 3 -1289 -7 -45 -42 -78 -84
-78 -18 0 -29 -5 -29 -14 0 -11 41 -14 225 -14 206 -1 280 8 208 24 -50 10
-81 25 -90 42 -4 10 -9 352 -11 762 -3 861 7 789 -103 738z"/>
<path d="M3 2627 c-2 -4 15 -16 39 -26 58 -25 103 -78 149 -176 21 -45 70
-148 108 -229 39 -82 71 -149 71 -151 0 -2 36 -79 80 -170 44 -91 80 -168 80
-170 0 -4 145 -310 188 -395 30 -61 56 -75 72 -38 15 37 68 176 248 658 94
250 180 473 191 496 44 89 133 165 211 180 28 6 36 11 27 20 -8 8 -466 9 -474
1 -10 -10 -1 -15 36 -22 76 -13 115 -53 124 -125 5 -49 -8 -91 -113 -370 -51
-135 -103 -272 -115 -305 -31 -82 -51 -134 -65 -170 l-12 -30 -19 40 c-23 46
-289 611 -342 727 -41 89 -51 138 -35 173 15 33 44 51 96 60 39 6 59 24 30 26
-91 5 -571 2 -575 -4z"/>
<path d="M1606 2585 c-56 -37 -71 -105 -40 -170 26 -55 110 -81 178 -55 61 23
89 148 46 203 -39 49 -128 60 -184 22z"/>
<path d="M1685 2095 c-38 -19 -112 -53 -162 -77 -51 -24 -93 -49 -93 -55 0
-16 3 -16 50 -2 59 18 87 6 100 -42 13 -47 10 -563 -3 -590 -10 -20 -50 -39
-82 -39 -15 0 -25 -6 -25 -14 0 -12 37 -14 225 -14 167 0 225 3 225 12 0 6
-10 12 -22 13 -47 4 -77 25 -89 61 -9 26 -12 140 -11 392 1 195 -1 363 -4 373
-7 24 -29 21 -109 -18z"/>
<path d="M3551 2109 c-126 -34 -264 -117 -296 -179 -33 -65 -6 -138 53 -141
116 -6 145 19 168 148 14 82 39 124 84 143 71 29 123 -20 136 -130 8 -64 12
-218 6 -241 -3 -12 -177 -86 -227 -95 -30 -6 -144 -58 -177 -80 -46 -33 -73
-96 -65 -156 12 -86 78 -132 189 -131 82 0 112 12 209 80 l76 53 17 -45 c23
-58 70 -99 105 -90 53 12 254 116 244 126 -6 6 -21 5 -42 -2 -42 -15 -74 -1
-100 42 -18 30 -20 54 -21 284 0 139 -5 267 -10 285 -38 131 -165 178 -349
129z m154 -577 l1 -112 -36 -25 c-47 -32 -82 -39 -125 -25 -66 22 -90 95 -53
161 21 39 33 46 168 106 14 7 29 10 34 9 6 -1 10 -53 11 -114z"/>
</g>
</svg>
